<svg role="img" viewBox="-2.739 -.477 189.946 253.975" xmlns="http://www.w3.org/2000/svg">
  <title>Glossier</title>
  <path d="m186.99 191.63a63.734 63.734 0 0 1-9.625 34.82 54.882 54.882 0 0 1-34.722 25.248 42.615 42.615 0 0 1-21.651-.196c-10.137-2.856-16.909-9.277-19.231-19.695a21.947 21.947 0 0 1 10.845-24.323 24.736 24.736 0 0 1 29.407 2.836c.99.81 1.912 1.699 2.756 2.659a16.88 16.88 0 0 0 19.211 4.53 21.25 21.25 0 0 0 13.385-15.441 26.974 26.974 0 0 0-2.683-20.439 26.949 26.949 0 0 0-16.331-12.569 29.8 29.8 0 0 0-3.504-.689 51.03 51.03 0 0 0-21.888 2.009 91.746 91.746 0 0 0-19.27 8.449c-15.353 8.902-51.177 29.778-53.755 31.511a8.263 8.263 0 0 1-9.842-.335 110.688 110.688 0 0 1-31.809-32.319A112.038 112.038 0 0 1 .301 130c-3.74-30.684 2.933-58.847 21.1-84.017 13.78-19.143 32.4-32.2 54.485-40.334A125.328 125.328 0 0 1 93.6.607a26.281 26.281 0 0 1 14.88 1.064c17.302 6.38 54.642 19.93 55.921 20.502a3.938 3.938 0 0 1 2.775 4.313 3.94 3.94 0 0 1-3.602 3.426c-4.35.788-8.719 1.38-13.01 2.265a115.02 115.02 0 0 0-50.882 23.397 91.856 91.856 0 0 0-31.159 46.539 69.99 69.99 0 0 0-.945 37.675 50.84 50.84 0 0 0 13.779 24.343 32.284 32.284 0 0 0 13.09 8.055 19.677 19.677 0 0 0 22.438-6.952 29.374 29.374 0 0 0 5.748-13.629c1.102-6.814-.236-44.963-.236-45.731a7.879 7.879 0 0 1 4.251-7.228c15.649-9.02 48.579-28.517 49.524-28.872a17.698 17.698 0 0 1 4.389-1.162 4.722 4.722 0 0 1 5.315 4.353c.177 1.063.413 99.792.413 118.659z"/>
</svg>
