<svg role="img" viewBox="0 0 756.348 126.479" xmlns="http://www.w3.org/2000/svg">
  <title>Gymshark</title>
  <g fill="#231f20" transform="translate(-18.701 -333.635) scale(.26458333)">
    <path d="M186.616 1473.797h103.226V1621.5c0 74.633-38.122 117.516-109.581 117.516-71.464 0-109.58-42.877-109.58-117.516v-242.994c0-74.645 38.116-117.522 109.58-117.522 71.465 0 109.581 42.878 109.581 117.522v46.059h-69.877v-50.819c0-33.342-14.291-46.045-38.116-46.045-23.826 0-38.11 12.703-38.11 46.045v252.516c0 33.348 14.291 46.064 38.11 46.064 23.819 0 38.116-12.717 38.116-46.064V1540.5h-33.349z"/>
    <path d="m396.248 1580.211-92.116-312.866h76.232l55.587 212.813 55.581-212.813h71.464L469.3 1580.211v155.631h-73.052z"/>
    <path d="m747.223 1599.262 50.819-331.917h101.639v466.911h-69.878v-335.091l-50.819 335.083h-69.877l-53.994-330.329v330.329h-63.529v-466.909h101.64z"/>
    <path d="M1052.145 1260.991c71.465 0 108 42.877 108 117.522v14.29h-69.89v-19.058c0-33.342-12.703-46.045-36.529-46.045-23.819 0-36.522 12.703-36.522 46.045 0 96.877 142.936 114.349 142.936 247.754 0 74.633-38.123 117.516-109.587 117.516-71.465 0-109.581-42.877-109.581-117.516v-28.594h69.878v33.355c0 33.342 14.296 46.059 38.122 46.059 23.825 0 38.109-12.717 38.109-46.059 0-96.877-142.929-114.355-142.929-247.755 0-74.637 36.522-117.514 107.993-117.514z"/>
    <path d="M1276.067 1734.256h-73.045v-466.911h73.045v200.104h84.174v-200.104h74.646v466.911h-74.646v-200.104h-84.174z"/>
    <path d="M1725.513 1734.256h-74.646l-12.703-84.176h-90.522l-12.703 84.176h-66.703l74.639-466.911h107.987zm-166.762-147.697h71.472l-34.942-236.639z"/>
    <path d="M1912.913 1734.256c-4.762-12.717-6.349-19.053-6.349-57.162v-73.059c0-42.877-14.304-58.748-47.646-58.748h-25.406v190.574h-73.045v-468.502h111.154c76.232 0 109.588 34.936 109.588 108v36.516c0 47.646-15.891 79.406-47.646 95.297 36.516 15.877 49.22 50.832 49.22 100.064v71.457c0 22.24 0 39.703 7.947 57.168h-77.825zm-79.413-400.214v142.929h28.593c26.994 0 44.472-12.71 44.472-49.232v-46.058c0-33.354-11.129-47.646-38.11-47.646z"/>
    <path d="m2124.139 1548.441-22.239 42.879v142.928h-73.045v-466.916h73.045v203.277l96.878-203.277h73.058l-101.651 208.045 101.651 258.871h-76.226z"/>
    <path d="M2319.48 1268.933h609.839s-279.51 311.278-420.852 465.323c0 0 11.122-23.807 17.483-33.342-6.361 0-12.723-25.406-20.651-38.129-7.936 4.773-15.891 7.947-23.826 11.121-7.929 4.768-12.703 3.188-17.465-6.328-3.174-7.949-6.342-17.479-11.129-25.412-7.929 3.174-27 14.303-30.174 14.303l-98.465-41.303c1.588 0 49.232-1.574 69.871 0l31.768 27.012c7.936-7.928 14.291-20.639 20.652-27.012h17.464c6.349 6.359 12.703 17.477 19.052 25.412 7.936-7.936 17.465-17.465 23.826-23.813h12.703c6.361 6.348 14.29 15.877 20.651 22.225 0 0 1.587 0 3.155 1.588 0 0 12.723-14.291 17.477-20.639h14.297s179.452-269.994 181.052-273.162c-144.515-27.025-436.728-77.844-436.728-77.844z"/>
    <path d="m2497.352 1429.333-100.065-55.587c58.749 14.29 119.117 28.587 177.871 41.297z"/>
  </g>
</svg>
